<svg width="324" height="100" viewBox="0 0 324 100" fill="none" xmlns="http://www.w3.org/2000/svg">
<path d="M143.281 65.8438V36.6172C143.281 36.0078 143.5 35.4844 143.938 35.0469C144.375 34.6094 144.898 34.3906 145.508 34.3906H149.867C150.508 34.3906 151.039 34.6094 151.461 35.0469C151.898 35.4844 152.117 36.0078 152.117 36.6172V65.7969C152.117 66.4062 151.891 66.9297 151.438 67.3672C151 67.7891 150.477 68 149.867 68H145.508C144.898 68 144.375 67.7969 143.938 67.3906C143.5 66.9688 143.281 66.4531 143.281 65.8438ZM158.844 65.7969V36.6172C158.844 36.0078 159.055 35.4844 159.477 35.0469C159.898 34.6094 160.414 34.3906 161.023 34.3906H167.914C168.461 34.3906 169.039 34.6094 169.648 35.0469C170.258 35.4844 170.758 36.0078 171.148 36.6172L185.305 58.3906V36.5703C185.305 35.9609 185.516 35.4453 185.938 35.0234C186.375 34.6016 186.898 34.3906 187.508 34.3906H191.539C192.148 34.3906 192.664 34.6016 193.086 35.0234C193.523 35.4453 193.742 35.9766 193.742 36.6172V65.7969C193.742 66.4062 193.523 66.9297 193.086 67.3672C192.664 67.7891 192.148 68 191.539 68H183.758C183.148 68 182.523 67.7891 181.883 67.3672C181.242 66.9297 180.734 66.4062 180.359 65.7969L167.398 45.6875V65.7969C167.398 66.4062 167.18 66.9297 166.742 67.3672C166.32 67.7891 165.805 68 165.195 68H161.07C160.461 68 159.938 67.7891 159.5 67.3672C159.062 66.9297 158.844 66.4062 158.844 65.7969ZM202.883 64.0391C199.992 61.2734 198.547 57 198.547 51.2188C198.547 45.4219 199.992 41.1406 202.883 38.375C205.789 35.5938 210.141 34.2031 215.938 34.2031H221.164C224.711 34.2031 227.844 35.125 230.562 36.9688C233.297 38.8125 234.664 41.3359 234.664 44.5391C234.664 45.4609 234.391 46.125 233.844 46.5312C233.297 46.9219 232.766 47.1172 232.25 47.1172H229.461C228.023 47.1172 226.906 46.2578 226.109 44.5391C224.953 42.0703 223.031 40.8359 220.344 40.8359H216.172C212.75 40.8359 210.43 41.5703 209.211 43.0391C207.992 44.5078 207.383 47.2266 207.383 51.1953C207.383 55.1641 207.992 57.8906 209.211 59.375C210.43 60.8438 212.75 61.5781 216.172 61.5781H220.836C223.523 61.5781 225.438 60.3438 226.578 57.875C227.375 56.1406 228.5 55.2734 229.953 55.2734H232.742C233.477 55.2734 234.055 55.5469 234.477 56.0938C234.914 56.6406 235.133 57.2344 235.133 57.875C235.133 61.0781 233.773 63.6016 231.055 65.4453C228.336 67.2734 225.203 68.1875 221.656 68.1875H215.938C210.141 68.1875 205.789 66.8047 202.883 64.0391ZM239.703 65.8438V36.6172C239.703 36.0078 239.922 35.4844 240.359 35.0469C240.797 34.6094 241.32 34.3906 241.93 34.3906H246.289C246.93 34.3906 247.461 34.6094 247.883 35.0469C248.32 35.4844 248.539 36.0078 248.539 36.6172V65.7969C248.539 66.4062 248.312 66.9297 247.859 67.3672C247.422 67.7891 246.898 68 246.289 68H241.93C241.32 68 240.797 67.7969 240.359 67.3906C239.922 66.9688 239.703 66.4531 239.703 65.8438ZM252.383 38.8203V36.6172C252.383 35.9766 252.594 35.4453 253.016 35.0234C253.438 34.6016 253.969 34.3906 254.609 34.3906H284.352C284.992 34.3906 285.523 34.6016 285.945 35.0234C286.367 35.4453 286.578 35.9766 286.578 36.6172V38.8203C286.578 39.4609 286.367 39.9922 285.945 40.4141C285.523 40.8203 284.992 41.0234 284.352 41.0234H273.898V65.8438C273.898 66.4531 273.68 66.9688 273.242 67.3906C272.82 67.7969 272.305 68 271.695 68H267.266C266.656 68 266.133 67.7969 265.695 67.3906C265.273 66.9688 265.062 66.4531 265.062 65.8438V41.0234H254.609C253.969 41.0234 253.438 40.8203 253.016 40.4141C252.594 39.9922 252.383 39.4609 252.383 38.8203Z" fill="#225378"/>
<path d="M54.6088 91.6666H45.3913C31.0307 91.6666 23.8504 91.6666 18.9543 87.4507C14.0582 83.2349 13.0427 76.1778 11.0119 62.0632L9.85032 53.9912C8.26932 43.0033 7.47882 37.5095 9.73074 32.8122C11.9827 28.1149 16.7758 25.2597 26.3622 19.5491L32.1323 16.1119C40.8377 10.9261 45.1904 8.33325 50 8.33325C54.8096 8.33325 59.1625 10.9261 67.8675 16.1119L73.6379 19.5491C83.2242 25.2597 88.0175 28.1149 90.2692 32.8122C92.5213 37.5095 91.7309 43.0033 90.1496 53.9912L88.9884 62.0632C86.9571 76.1778 85.9417 83.2349 81.0459 87.4507C76.1496 91.6666 68.9692 91.6666 54.6088 91.6666Z" fill="#225378"/>
<path d="M72.7075 50.8008C60.1371 37.233 39.8628 37.233 27.2924 50.8008C26.1194 52.0671 24.1423 52.1425 22.8762 50.9696C21.6101 49.7967 21.5347 47.8192 22.7076 46.5533C37.7515 30.3156 62.2483 30.3156 77.2925 46.5533C78.4654 47.8192 78.39 49.7967 77.1238 50.9696C75.8579 52.1425 73.8804 52.0671 72.7075 50.8008Z" fill="white"/>
<path d="M64.3746 59.7945C56.4062 51.1941 43.5937 51.1941 35.6258 59.7945C34.4528 61.0607 32.4756 61.1362 31.2096 59.9632C29.9435 58.7903 29.8681 56.8128 31.041 55.547C41.4825 44.277 58.5175 44.277 68.9591 55.547C70.1321 56.8128 70.0566 58.7903 68.7904 59.9632C67.5246 61.1362 65.5475 61.0607 64.3746 59.7945Z" fill="white"/>
<path d="M56.0413 68.7905C52.6755 65.158 47.3251 65.158 43.9592 68.7905C42.7863 70.0568 40.8091 70.1322 39.5431 68.9593C38.277 67.7864 38.2016 65.8089 39.3745 64.543C45.2138 58.2405 54.7867 58.2405 60.6259 64.543C61.7988 65.8089 61.7234 67.7864 60.4576 68.9593C59.1913 70.1322 57.2142 70.0568 56.0413 68.7905Z" fill="white"/>
<g clip-path="url(#clip0_9_93)">
<rect x="117" y="9" width="4" height="83" fill="#225378"/>
</g>
<mask id="path-8-inside-1_9_93" fill="white">
<path fill-rule="evenodd" clip-rule="evenodd" d="M314.672 36.1874C315.924 34.7874 318.156 34.5982 319.658 35.765C321.16 36.9317 321.363 39.0126 320.111 40.4126L309.131 52.6948V64.7C309.131 66.5225 307.546 68 305.591 68C303.636 68 302.051 66.5225 302.051 64.7V52.6948L291.071 40.4126C289.819 39.0126 290.022 36.9317 291.524 35.765C293.026 34.5982 295.258 34.7874 296.51 36.1874L305.591 46.3453L314.672 36.1874ZM318.147 37.4551C317.646 37.0661 316.902 37.1292 316.485 37.5959L306.497 48.7678C306.273 49.0186 305.941 49.1636 305.591 49.1636C305.241 49.1636 304.909 49.0186 304.684 48.7678L294.697 37.5959C294.28 37.1292 293.536 37.0661 293.035 37.4551C292.534 37.8439 292.467 38.5376 292.884 39.0043L304.137 51.5923C304.314 51.79 304.411 52.0392 304.411 52.2966V64.7C304.411 65.3075 304.939 65.8 305.591 65.8C306.243 65.8 306.771 65.3075 306.771 64.7V52.2966C306.771 52.0392 306.868 51.79 307.045 51.5923L318.298 39.0043C318.715 38.5376 318.648 37.8439 318.147 37.4551Z"/>
</mask>
<path fill-rule="evenodd" clip-rule="evenodd" d="M314.672 36.1874C315.924 34.7874 318.156 34.5982 319.658 35.765C321.16 36.9317 321.363 39.0126 320.111 40.4126L309.131 52.6948V64.7C309.131 66.5225 307.546 68 305.591 68C303.636 68 302.051 66.5225 302.051 64.7V52.6948L291.071 40.4126C289.819 39.0126 290.022 36.9317 291.524 35.765C293.026 34.5982 295.258 34.7874 296.51 36.1874L305.591 46.3453L314.672 36.1874ZM318.147 37.4551C317.646 37.0661 316.902 37.1292 316.485 37.5959L306.497 48.7678C306.273 49.0186 305.941 49.1636 305.591 49.1636C305.241 49.1636 304.909 49.0186 304.684 48.7678L294.697 37.5959C294.28 37.1292 293.536 37.0661 293.035 37.4551C292.534 37.8439 292.467 38.5376 292.884 39.0043L304.137 51.5923C304.314 51.79 304.411 52.0392 304.411 52.2966V64.7C304.411 65.3075 304.939 65.8 305.591 65.8C306.243 65.8 306.771 65.3075 306.771 64.7V52.2966C306.771 52.0392 306.868 51.79 307.045 51.5923L318.298 39.0043C318.715 38.5376 318.648 37.8439 318.147 37.4551Z" fill="#225378"/>
<path d="M321.645 38.4384L320.738 37.7341L317.671 41.6827L318.577 42.3869L321.645 38.4384ZM289.66 37.4312L290.416 38.2762L294.143 34.9437L293.388 34.0987L289.66 37.4312ZM314.672 36.1874L310.944 32.855L310.944 32.855L314.672 36.1874ZM319.658 35.765L316.591 39.7136L316.591 39.7137L319.658 35.765ZM320.111 40.4126L316.384 37.0802L316.384 37.0802L320.111 40.4126ZM309.131 52.6948L305.404 49.3623L304.131 50.7856V52.6948H309.131ZM302.051 52.6948H307.051V50.7856L305.778 49.3623L302.051 52.6948ZM291.071 40.4126L294.798 37.0802L294.798 37.0802L291.071 40.4126ZM291.524 35.765L288.457 31.8162L288.457 31.8163L291.524 35.765ZM296.51 36.1874L300.237 32.855L300.237 32.855L296.51 36.1874ZM305.591 46.3453L301.863 49.6777L305.591 53.8473L309.319 49.6777L305.591 46.3453ZM318.147 37.4551L315.08 41.4037L315.08 41.4037L318.147 37.4551ZM316.485 37.5959L312.757 34.2634L312.757 34.2635L316.485 37.5959ZM306.497 48.7678L310.225 52.1002L310.225 52.1002L306.497 48.7678ZM304.684 48.7678L308.413 45.4363L308.412 45.4353L304.684 48.7678ZM294.697 37.5959L298.424 34.2635L298.424 34.2634L294.697 37.5959ZM293.035 37.4551L296.102 41.4041L296.102 41.4037L293.035 37.4551ZM292.884 39.0043L296.611 35.6719L296.611 35.6718L292.884 39.0043ZM304.137 51.5923L300.41 54.9248L300.41 54.9254L304.137 51.5923ZM307.045 51.5923L310.772 54.9254L310.772 54.9248L307.045 51.5923ZM318.298 39.0043L314.571 35.6718L314.571 35.6719L318.298 39.0043ZM318.399 39.5199C318.104 39.8504 317.753 39.9737 317.493 39.9958C317.233 40.0178 316.9 39.954 316.591 39.7136L322.725 31.8163C319.191 29.0708 313.983 29.4561 310.944 32.855L318.399 39.5199ZM316.591 39.7137C316.264 39.4598 315.993 39.0227 315.941 38.4866C315.888 37.9469 316.071 37.43 316.384 37.0802L323.839 43.7451C327.065 40.136 326.463 34.7197 322.725 31.8162L316.591 39.7137ZM316.384 37.0802L305.404 49.3623L312.859 56.0272L323.839 43.7451L316.384 37.0802ZM304.131 52.6948V64.7H314.131V52.6948H304.131ZM304.131 64.7C304.131 64.1119 304.396 63.6452 304.685 63.376C304.968 63.1124 305.3 63 305.591 63V73C309.971 73 314.131 69.609 314.131 64.7H304.131ZM305.591 63C305.882 63 306.214 63.1124 306.497 63.376C306.786 63.6453 307.051 64.1121 307.051 64.7H297.051C297.051 69.6089 301.211 73 305.591 73V63ZM307.051 64.7V52.6948H297.051V64.7H307.051ZM305.778 49.3623L294.798 37.0802L287.343 43.7451L298.323 56.0272L305.778 49.3623ZM294.798 37.0802C295.111 37.4301 295.294 37.947 295.241 38.4866C295.189 39.0227 294.918 39.4597 294.591 39.7136L288.457 31.8163C284.719 34.7196 284.116 40.1358 287.343 43.7451L294.798 37.0802ZM294.591 39.7137C294.282 39.954 293.949 40.0178 293.689 39.9958C293.428 39.9737 293.078 39.8504 292.782 39.5199L300.237 32.855C297.199 29.456 291.991 29.0709 288.457 31.8162L294.591 39.7137ZM292.782 39.5199L301.863 49.6777L309.319 43.0128L300.237 32.855L292.782 39.5199ZM309.319 49.6777L318.399 39.5199L310.944 32.855L301.863 43.0128L309.319 49.6777ZM321.214 33.5065C318.681 31.5388 314.962 31.7978 312.757 34.2634L320.212 40.9284C318.843 42.4606 316.611 42.5934 315.08 41.4037L321.214 33.5065ZM312.757 34.2635L302.77 45.4354L310.225 52.1002L320.213 40.9283L312.757 34.2635ZM302.77 45.4353C303.538 44.5765 304.584 44.1636 305.591 44.1636V54.1636C307.298 54.1636 309.009 53.4606 310.225 52.1002L302.77 45.4353ZM305.591 44.1636C306.597 44.1636 307.644 44.576 308.413 45.4363L300.956 52.0992C302.173 53.4611 303.885 54.1636 305.591 54.1636V44.1636ZM308.412 45.4353L298.424 34.2635L290.969 40.9283L300.957 52.1002L308.412 45.4353ZM298.424 34.2634C296.22 31.7978 292.501 31.5388 289.967 33.5065L296.102 41.4037C294.571 42.5935 292.339 42.4605 290.969 40.9284L298.424 34.2634ZM289.968 33.5061C287.231 35.6319 286.764 39.6613 289.156 42.3368L296.611 35.6718C298.169 37.4138 297.838 40.056 296.102 41.4041L289.968 33.5061ZM289.156 42.3367L300.41 54.9248L307.865 48.2599L296.611 35.6719L289.156 42.3367ZM300.41 54.9254C299.794 54.2367 299.411 53.309 299.411 52.2966H309.411C309.411 50.7693 308.834 49.3433 307.864 48.2593L300.41 54.9254ZM299.411 52.2966V64.7H309.411V52.2966H299.411ZM299.411 64.7C299.411 68.394 302.514 70.8 305.591 70.8V60.8C307.364 60.8 309.411 62.221 309.411 64.7H299.411ZM305.591 70.8C308.667 70.8 311.771 68.394 311.771 64.7H301.771C301.771 62.221 303.818 60.8 305.591 60.8V70.8ZM311.771 64.7V52.2966H301.771V64.7H311.771ZM311.771 52.2966C311.771 53.309 311.387 54.2367 310.772 54.9254L303.318 48.2593C302.348 49.3433 301.771 50.7694 301.771 52.2966H311.771ZM310.772 54.9248L322.026 42.3367L314.571 35.6719L303.317 48.2599L310.772 54.9248ZM322.026 42.3368C324.418 39.6607 323.95 35.6317 321.214 33.5064L315.08 41.4037C313.345 40.0561 313.013 37.4144 314.571 35.6718L322.026 42.3368Z" fill="#225378" mask="url(#path-8-inside-1_9_93)"/>
<defs>
<clipPath id="clip0_9_93">
<rect x="117" y="9" width="4" height="83" rx="2" fill="white"/>
</clipPath>
</defs>
</svg>
